<?xml version="1.0" encoding="UTF-8" standalone="no"?>
<svg
   xmlns:dc="http://purl.org/dc/elements/1.1/"
   xmlns:cc="http://creativecommons.org/ns#"
   xmlns:rdf="http://www.w3.org/1999/02/22-rdf-syntax-ns#"
   xmlns:svg="http://www.w3.org/2000/svg"
   xmlns="http://www.w3.org/2000/svg"
   xmlns:xlink="http://www.w3.org/1999/xlink"
   xmlns:sodipodi="http://sodipodi.sourceforge.net/DTD/sodipodi-0.dtd"
   xmlns:inkscape="http://www.inkscape.org/namespaces/inkscape"
   height="576pt"
   version="1.1"
   viewBox="0 0 720 576"
   width="720pt"
   id="svg3419"
   sodipodi:docname="xgb_probability_distribution.svg"
   inkscape:version="1.0.1 (c497b03c, 2020-09-10)">
  <metadata
     id="metadata3423">
    <rdf:RDF>
      <cc:Work
         rdf:about="">
        <dc:format>image/svg+xml</dc:format>
        <dc:type
           rdf:resource="http://purl.org/dc/dcmitype/StillImage" />
        <dc:title></dc:title>
      </cc:Work>
    </rdf:RDF>
  </metadata>
  <sodipodi:namedview
     pagecolor="#ffffff"
     bordercolor="#666666"
     borderopacity="1"
     objecttolerance="10"
     gridtolerance="10"
     guidetolerance="10"
     inkscape:pageopacity="0"
     inkscape:pageshadow="2"
     inkscape:window-width="1065"
     inkscape:window-height="742"
     id="namedview3421"
     showgrid="false"
     inkscape:zoom="0.47940526"
     inkscape:cx="552.14898"
     inkscape:cy="310.53284"
     inkscape:window-x="0"
     inkscape:window-y="25"
     inkscape:window-maximized="0"
     inkscape:current-layer="svg3419" />
  <defs
     id="defs2635">
    <style
       type="text/css"
       id="style2633">
*{stroke-linecap:butt;stroke-linejoin:round;}
  </style>
  </defs>
  <g
     id="figure_1">
    <g
       id="patch_1">
      <path
         d="M 0 576  L 720 576  L 720 0  L 0 0  z "
         style="fill:#ffffff;"
         id="path2637" />
    </g>
    <g
       id="axes_1">
      <g
         id="patch_2">
        <path
           d="M 90 504  L 648 504  L 648 69.12  L 90 69.12  z "
           style="fill:#eaeaf2;"
           id="path2640" />
      </g>
      <g
         id="matplotlib.axis_1">
        <g
           id="xtick_1">
          <g
             id="line2d_1">
            <path
               clip-path="url(#p1510ce0f4d)"
               d="M 90.556886 504  L 90.556886 69.12  "
               style="fill:none;stroke:#ffffff;stroke-linecap:round;"
               id="path2643" />
          </g>
          <g
             id="text_1">
            <!-- 0.0 -->
            <defs
               id="defs2648">
              <path
                 d="M 31.78125 66.40625  Q 24.171875 66.40625 20.328125 58.90625  Q 16.5 51.421875 16.5 36.375  Q 16.5 21.390625 20.328125 13.890625  Q 24.171875 6.390625 31.78125 6.390625  Q 39.453125 6.390625 43.28125 13.890625  Q 47.125 21.390625 47.125 36.375  Q 47.125 51.421875 43.28125 58.90625  Q 39.453125 66.40625 31.78125 66.40625  z M 31.78125 74.21875  Q 44.046875 74.21875 50.515625 64.515625  Q 56.984375 54.828125 56.984375 36.375  Q 56.984375 17.96875 50.515625 8.265625  Q 44.046875 -1.421875 31.78125 -1.421875  Q 19.53125 -1.421875 13.0625 8.265625  Q 6.59375 17.96875 6.59375 36.375  Q 6.59375 54.828125 13.0625 64.515625  Q 19.53125 74.21875 31.78125 74.21875  z "
                 id="DejaVuSans-48" />
              <path
                 d="M 10.6875 12.40625  L 21 12.40625  L 21 0  L 10.6875 0  z "
                 id="DejaVuSans-46" />
            </defs>
            <g
               style="fill:#262626;"
               transform="translate(81.015011 524.118125)scale(0.12 -0.12)"
               id="g2656">
              <use
                 xlink:href="#DejaVuSans-48"
                 id="use2650" />
              <use
                 x="63.623047"
                 xlink:href="#DejaVuSans-46"
                 id="use2652" />
              <use
                 x="95.410156"
                 xlink:href="#DejaVuSans-48"
                 id="use2654" />
            </g>
          </g>
        </g>
        <g
           id="xtick_2">
          <g
             id="line2d_2">
            <path
               clip-path="url(#p1510ce0f4d)"
               d="M 201.934132 504  L 201.934132 69.12  "
               style="fill:none;stroke:#ffffff;stroke-linecap:round;"
               id="path2660" />
          </g>
          <g
             id="text_2">
            <!-- 0.2 -->
            <defs
               id="defs2664">
              <path
                 d="M 19.1875 8.296875  L 53.609375 8.296875  L 53.609375 0  L 7.328125 0  L 7.328125 8.296875  Q 12.9375 14.109375 22.625 23.890625  Q 32.328125 33.6875 34.8125 36.53125  Q 39.546875 41.84375 41.421875 45.53125  Q 43.3125 49.21875 43.3125 52.78125  Q 43.3125 58.59375 39.234375 62.25  Q 35.15625 65.921875 28.609375 65.921875  Q 23.96875 65.921875 18.8125 64.3125  Q 13.671875 62.703125 7.8125 59.421875  L 7.8125 69.390625  Q 13.765625 71.78125 18.9375 73  Q 24.125 74.21875 28.421875 74.21875  Q 39.75 74.21875 46.484375 68.546875  Q 53.21875 62.890625 53.21875 53.421875  Q 53.21875 48.921875 51.53125 44.890625  Q 49.859375 40.875 45.40625 35.40625  Q 44.1875 33.984375 37.640625 27.21875  Q 31.109375 20.453125 19.1875 8.296875  z "
                 id="DejaVuSans-50" />
            </defs>
            <g
               style="fill:#262626;"
               transform="translate(192.392257 524.118125)scale(0.12 -0.12)"
               id="g2672">
              <use
                 xlink:href="#DejaVuSans-48"
                 id="use2666" />
              <use
                 x="63.623047"
                 xlink:href="#DejaVuSans-46"
                 id="use2668" />
              <use
                 x="95.410156"
                 xlink:href="#DejaVuSans-50"
                 id="use2670" />
            </g>
          </g>
        </g>
        <g
           id="xtick_3">
          <g
             id="line2d_3">
            <path
               clip-path="url(#p1510ce0f4d)"
               d="M 313.311377 504  L 313.311377 69.12  "
               style="fill:none;stroke:#ffffff;stroke-linecap:round;"
               id="path2676" />
          </g>
          <g
             id="text_3">
            <!-- 0.4 -->
            <defs
               id="defs2680">
              <path
                 d="M 37.796875 64.3125  L 12.890625 25.390625  L 37.796875 25.390625  z M 35.203125 72.90625  L 47.609375 72.90625  L 47.609375 25.390625  L 58.015625 25.390625  L 58.015625 17.1875  L 47.609375 17.1875  L 47.609375 0  L 37.796875 0  L 37.796875 17.1875  L 4.890625 17.1875  L 4.890625 26.703125  z "
                 id="DejaVuSans-52" />
            </defs>
            <g
               style="fill:#262626;"
               transform="translate(303.769502 524.118125)scale(0.12 -0.12)"
               id="g2688">
              <use
                 xlink:href="#DejaVuSans-48"
                 id="use2682" />
              <use
                 x="63.623047"
                 xlink:href="#DejaVuSans-46"
                 id="use2684" />
              <use
                 x="95.410156"
                 xlink:href="#DejaVuSans-52"
                 id="use2686" />
            </g>
          </g>
        </g>
        <g
           id="xtick_4">
          <g
             id="line2d_4">
            <path
               clip-path="url(#p1510ce0f4d)"
               d="M 424.688623 504  L 424.688623 69.12  "
               style="fill:none;stroke:#ffffff;stroke-linecap:round;"
               id="path2692" />
          </g>
          <g
             id="text_4">
            <!-- 0.6 -->
            <defs
               id="defs2696">
              <path
                 d="M 33.015625 40.375  Q 26.375 40.375 22.484375 35.828125  Q 18.609375 31.296875 18.609375 23.390625  Q 18.609375 15.53125 22.484375 10.953125  Q 26.375 6.390625 33.015625 6.390625  Q 39.65625 6.390625 43.53125 10.953125  Q 47.40625 15.53125 47.40625 23.390625  Q 47.40625 31.296875 43.53125 35.828125  Q 39.65625 40.375 33.015625 40.375  z M 52.59375 71.296875  L 52.59375 62.3125  Q 48.875 64.0625 45.09375 64.984375  Q 41.3125 65.921875 37.59375 65.921875  Q 27.828125 65.921875 22.671875 59.328125  Q 17.53125 52.734375 16.796875 39.40625  Q 19.671875 43.65625 24.015625 45.921875  Q 28.375 48.1875 33.59375 48.1875  Q 44.578125 48.1875 50.953125 41.515625  Q 57.328125 34.859375 57.328125 23.390625  Q 57.328125 12.15625 50.6875 5.359375  Q 44.046875 -1.421875 33.015625 -1.421875  Q 20.359375 -1.421875 13.671875 8.265625  Q 6.984375 17.96875 6.984375 36.375  Q 6.984375 53.65625 15.1875 63.9375  Q 23.390625 74.21875 37.203125 74.21875  Q 40.921875 74.21875 44.703125 73.484375  Q 48.484375 72.75 52.59375 71.296875  z "
                 id="DejaVuSans-54" />
            </defs>
            <g
               style="fill:#262626;"
               transform="translate(415.146748 524.118125)scale(0.12 -0.12)"
               id="g2704">
              <use
                 xlink:href="#DejaVuSans-48"
                 id="use2698" />
              <use
                 x="63.623047"
                 xlink:href="#DejaVuSans-46"
                 id="use2700" />
              <use
                 x="95.410156"
                 xlink:href="#DejaVuSans-54"
                 id="use2702" />
            </g>
          </g>
        </g>
        <g
           id="xtick_5">
          <g
             id="line2d_5">
            <path
               clip-path="url(#p1510ce0f4d)"
               d="M 536.065868 504  L 536.065868 69.12  "
               style="fill:none;stroke:#ffffff;stroke-linecap:round;"
               id="path2708" />
          </g>
          <g
             id="text_5">
            <!-- 0.8 -->
            <defs
               id="defs2712">
              <path
                 d="M 31.78125 34.625  Q 24.75 34.625 20.71875 30.859375  Q 16.703125 27.09375 16.703125 20.515625  Q 16.703125 13.921875 20.71875 10.15625  Q 24.75 6.390625 31.78125 6.390625  Q 38.8125 6.390625 42.859375 10.171875  Q 46.921875 13.96875 46.921875 20.515625  Q 46.921875 27.09375 42.890625 30.859375  Q 38.875 34.625 31.78125 34.625  z M 21.921875 38.8125  Q 15.578125 40.375 12.03125 44.71875  Q 8.5 49.078125 8.5 55.328125  Q 8.5 64.0625 14.71875 69.140625  Q 20.953125 74.21875 31.78125 74.21875  Q 42.671875 74.21875 48.875 69.140625  Q 55.078125 64.0625 55.078125 55.328125  Q 55.078125 49.078125 51.53125 44.71875  Q 48 40.375 41.703125 38.8125  Q 48.828125 37.15625 52.796875 32.3125  Q 56.78125 27.484375 56.78125 20.515625  Q 56.78125 9.90625 50.3125 4.234375  Q 43.84375 -1.421875 31.78125 -1.421875  Q 19.734375 -1.421875 13.25 4.234375  Q 6.78125 9.90625 6.78125 20.515625  Q 6.78125 27.484375 10.78125 32.3125  Q 14.796875 37.15625 21.921875 38.8125  z M 18.3125 54.390625  Q 18.3125 48.734375 21.84375 45.5625  Q 25.390625 42.390625 31.78125 42.390625  Q 38.140625 42.390625 41.71875 45.5625  Q 45.3125 48.734375 45.3125 54.390625  Q 45.3125 60.0625 41.71875 63.234375  Q 38.140625 66.40625 31.78125 66.40625  Q 25.390625 66.40625 21.84375 63.234375  Q 18.3125 60.0625 18.3125 54.390625  z "
                 id="DejaVuSans-56" />
            </defs>
            <g
               style="fill:#262626;"
               transform="translate(526.523993 524.118125)scale(0.12 -0.12)"
               id="g2720">
              <use
                 xlink:href="#DejaVuSans-48"
                 id="use2714" />
              <use
                 x="63.623047"
                 xlink:href="#DejaVuSans-46"
                 id="use2716" />
              <use
                 x="95.410156"
                 xlink:href="#DejaVuSans-56"
                 id="use2718" />
            </g>
          </g>
        </g>
        <g
           id="xtick_6">
          <g
             id="line2d_6">
            <path
               clip-path="url(#p1510ce0f4d)"
               d="M 647.443114 504  L 647.443114 69.12  "
               style="fill:none;stroke:#ffffff;stroke-linecap:round;"
               id="path2724" />
          </g>
          <g
             id="text_6">
            <!-- 1.0 -->
            <defs
               id="defs2728">
              <path
                 d="M 12.40625 8.296875  L 28.515625 8.296875  L 28.515625 63.921875  L 10.984375 60.40625  L 10.984375 69.390625  L 28.421875 72.90625  L 38.28125 72.90625  L 38.28125 8.296875  L 54.390625 8.296875  L 54.390625 0  L 12.40625 0  z "
                 id="DejaVuSans-49" />
            </defs>
            <g
               style="fill:#262626;"
               transform="translate(637.901239 524.118125)scale(0.12 -0.12)"
               id="g2736">
              <use
                 xlink:href="#DejaVuSans-49"
                 id="use2730" />
              <use
                 x="63.623047"
                 xlink:href="#DejaVuSans-46"
                 id="use2732" />
              <use
                 x="95.410156"
                 xlink:href="#DejaVuSans-48"
                 id="use2734" />
            </g>
          </g>
        </g>
        <g
           id="text_7">
          <!-- Probability of Positive Label -->
          <defs
             id="defs2755">
            <path
               d="M 19.671875 64.796875  L 19.671875 37.40625  L 32.078125 37.40625  Q 38.96875 37.40625 42.71875 40.96875  Q 46.484375 44.53125 46.484375 51.125  Q 46.484375 57.671875 42.71875 61.234375  Q 38.96875 64.796875 32.078125 64.796875  z M 9.8125 72.90625  L 32.078125 72.90625  Q 44.34375 72.90625 50.609375 67.359375  Q 56.890625 61.8125 56.890625 51.125  Q 56.890625 40.328125 50.609375 34.8125  Q 44.34375 29.296875 32.078125 29.296875  L 19.671875 29.296875  L 19.671875 0  L 9.8125 0  z "
               id="DejaVuSans-80" />
            <path
               d="M 41.109375 46.296875  Q 39.59375 47.171875 37.8125 47.578125  Q 36.03125 48 33.890625 48  Q 26.265625 48 22.1875 43.046875  Q 18.109375 38.09375 18.109375 28.8125  L 18.109375 0  L 9.078125 0  L 9.078125 54.6875  L 18.109375 54.6875  L 18.109375 46.1875  Q 20.953125 51.171875 25.484375 53.578125  Q 30.03125 56 36.53125 56  Q 37.453125 56 38.578125 55.875  Q 39.703125 55.765625 41.0625 55.515625  z "
               id="DejaVuSans-114" />
            <path
               d="M 30.609375 48.390625  Q 23.390625 48.390625 19.1875 42.75  Q 14.984375 37.109375 14.984375 27.296875  Q 14.984375 17.484375 19.15625 11.84375  Q 23.34375 6.203125 30.609375 6.203125  Q 37.796875 6.203125 41.984375 11.859375  Q 46.1875 17.53125 46.1875 27.296875  Q 46.1875 37.015625 41.984375 42.703125  Q 37.796875 48.390625 30.609375 48.390625  z M 30.609375 56  Q 42.328125 56 49.015625 48.375  Q 55.71875 40.765625 55.71875 27.296875  Q 55.71875 13.875 49.015625 6.21875  Q 42.328125 -1.421875 30.609375 -1.421875  Q 18.84375 -1.421875 12.171875 6.21875  Q 5.515625 13.875 5.515625 27.296875  Q 5.515625 40.765625 12.171875 48.375  Q 18.84375 56 30.609375 56  z "
               id="DejaVuSans-111" />
            <path
               d="M 48.6875 27.296875  Q 48.6875 37.203125 44.609375 42.84375  Q 40.53125 48.484375 33.40625 48.484375  Q 26.265625 48.484375 22.1875 42.84375  Q 18.109375 37.203125 18.109375 27.296875  Q 18.109375 17.390625 22.1875 11.75  Q 26.265625 6.109375 33.40625 6.109375  Q 40.53125 6.109375 44.609375 11.75  Q 48.6875 17.390625 48.6875 27.296875  z M 18.109375 46.390625  Q 20.953125 51.265625 25.265625 53.625  Q 29.59375 56 35.59375 56  Q 45.5625 56 51.78125 48.09375  Q 58.015625 40.1875 58.015625 27.296875  Q 58.015625 14.40625 51.78125 6.484375  Q 45.5625 -1.421875 35.59375 -1.421875  Q 29.59375 -1.421875 25.265625 0.953125  Q 20.953125 3.328125 18.109375 8.203125  L 18.109375 0  L 9.078125 0  L 9.078125 75.984375  L 18.109375 75.984375  z "
               id="DejaVuSans-98" />
            <path
               d="M 34.28125 27.484375  Q 23.390625 27.484375 19.1875 25  Q 14.984375 22.515625 14.984375 16.5  Q 14.984375 11.71875 18.140625 8.90625  Q 21.296875 6.109375 26.703125 6.109375  Q 34.1875 6.109375 38.703125 11.40625  Q 43.21875 16.703125 43.21875 25.484375  L 43.21875 27.484375  z M 52.203125 31.203125  L 52.203125 0  L 43.21875 0  L 43.21875 8.296875  Q 40.140625 3.328125 35.546875 0.953125  Q 30.953125 -1.421875 24.3125 -1.421875  Q 15.921875 -1.421875 10.953125 3.296875  Q 6 8.015625 6 15.921875  Q 6 25.140625 12.171875 29.828125  Q 18.359375 34.515625 30.609375 34.515625  L 43.21875 34.515625  L 43.21875 35.40625  Q 43.21875 41.609375 39.140625 45  Q 35.0625 48.390625 27.6875 48.390625  Q 23 48.390625 18.546875 47.265625  Q 14.109375 46.140625 10.015625 43.890625  L 10.015625 52.203125  Q 14.9375 54.109375 19.578125 55.046875  Q 24.21875 56 28.609375 56  Q 40.484375 56 46.34375 49.84375  Q 52.203125 43.703125 52.203125 31.203125  z "
               id="DejaVuSans-97" />
            <path
               d="M 9.421875 54.6875  L 18.40625 54.6875  L 18.40625 0  L 9.421875 0  z M 9.421875 75.984375  L 18.40625 75.984375  L 18.40625 64.59375  L 9.421875 64.59375  z "
               id="DejaVuSans-105" />
            <path
               d="M 9.421875 75.984375  L 18.40625 75.984375  L 18.40625 0  L 9.421875 0  z "
               id="DejaVuSans-108" />
            <path
               d="M 18.3125 70.21875  L 18.3125 54.6875  L 36.8125 54.6875  L 36.8125 47.703125  L 18.3125 47.703125  L 18.3125 18.015625  Q 18.3125 11.328125 20.140625 9.421875  Q 21.96875 7.515625 27.59375 7.515625  L 36.8125 7.515625  L 36.8125 0  L 27.59375 0  Q 17.1875 0 13.234375 3.875  Q 9.28125 7.765625 9.28125 18.015625  L 9.28125 47.703125  L 2.6875 47.703125  L 2.6875 54.6875  L 9.28125 54.6875  L 9.28125 70.21875  z "
               id="DejaVuSans-116" />
            <path
               d="M 32.171875 -5.078125  Q 28.375 -14.84375 24.75 -17.8125  Q 21.140625 -20.796875 15.09375 -20.796875  L 7.90625 -20.796875  L 7.90625 -13.28125  L 13.1875 -13.28125  Q 16.890625 -13.28125 18.9375 -11.515625  Q 21 -9.765625 23.484375 -3.21875  L 25.09375 0.875  L 2.984375 54.6875  L 12.5 54.6875  L 29.59375 11.921875  L 46.6875 54.6875  L 56.203125 54.6875  z "
               id="DejaVuSans-121" />
            <path
               id="DejaVuSans-32" />
            <path
               d="M 37.109375 75.984375  L 37.109375 68.5  L 28.515625 68.5  Q 23.6875 68.5 21.796875 66.546875  Q 19.921875 64.59375 19.921875 59.515625  L 19.921875 54.6875  L 34.71875 54.6875  L 34.71875 47.703125  L 19.921875 47.703125  L 19.921875 0  L 10.890625 0  L 10.890625 47.703125  L 2.296875 47.703125  L 2.296875 54.6875  L 10.890625 54.6875  L 10.890625 58.5  Q 10.890625 67.625 15.140625 71.796875  Q 19.390625 75.984375 28.609375 75.984375  z "
               id="DejaVuSans-102" />
            <path
               d="M 44.28125 53.078125  L 44.28125 44.578125  Q 40.484375 46.53125 36.375 47.5  Q 32.28125 48.484375 27.875 48.484375  Q 21.1875 48.484375 17.84375 46.4375  Q 14.5 44.390625 14.5 40.28125  Q 14.5 37.15625 16.890625 35.375  Q 19.28125 33.59375 26.515625 31.984375  L 29.59375 31.296875  Q 39.15625 29.25 43.1875 25.515625  Q 47.21875 21.78125 47.21875 15.09375  Q 47.21875 7.46875 41.1875 3.015625  Q 35.15625 -1.421875 24.609375 -1.421875  Q 20.21875 -1.421875 15.453125 -0.5625  Q 10.6875 0.296875 5.421875 2  L 5.421875 11.28125  Q 10.40625 8.6875 15.234375 7.390625  Q 20.0625 6.109375 24.8125 6.109375  Q 31.15625 6.109375 34.5625 8.28125  Q 37.984375 10.453125 37.984375 14.40625  Q 37.984375 18.0625 35.515625 20.015625  Q 33.0625 21.96875 24.703125 23.78125  L 21.578125 24.515625  Q 13.234375 26.265625 9.515625 29.90625  Q 5.8125 33.546875 5.8125 39.890625  Q 5.8125 47.609375 11.28125 51.796875  Q 16.75 56 26.8125 56  Q 31.78125 56 36.171875 55.265625  Q 40.578125 54.546875 44.28125 53.078125  z "
               id="DejaVuSans-115" />
            <path
               d="M 2.984375 54.6875  L 12.5 54.6875  L 29.59375 8.796875  L 46.6875 54.6875  L 56.203125 54.6875  L 35.6875 0  L 23.484375 0  z "
               id="DejaVuSans-118" />
            <path
               d="M 56.203125 29.59375  L 56.203125 25.203125  L 14.890625 25.203125  Q 15.484375 15.921875 20.484375 11.0625  Q 25.484375 6.203125 34.421875 6.203125  Q 39.59375 6.203125 44.453125 7.46875  Q 49.3125 8.734375 54.109375 11.28125  L 54.109375 2.78125  Q 49.265625 0.734375 44.1875 -0.34375  Q 39.109375 -1.421875 33.890625 -1.421875  Q 20.796875 -1.421875 13.15625 6.1875  Q 5.515625 13.8125 5.515625 26.8125  Q 5.515625 40.234375 12.765625 48.109375  Q 20.015625 56 32.328125 56  Q 43.359375 56 49.78125 48.890625  Q 56.203125 41.796875 56.203125 29.59375  z M 47.21875 32.234375  Q 47.125 39.59375 43.09375 43.984375  Q 39.0625 48.390625 32.421875 48.390625  Q 24.90625 48.390625 20.390625 44.140625  Q 15.875 39.890625 15.1875 32.171875  z "
               id="DejaVuSans-101" />
            <path
               d="M 9.8125 72.90625  L 19.671875 72.90625  L 19.671875 8.296875  L 55.171875 8.296875  L 55.171875 0  L 9.8125 0  z "
               id="DejaVuSans-76" />
          </defs>
          <g
             style="fill:#262626;"
             transform="translate(286.467188 539.731875)scale(0.12 -0.12)"
             id="g2815">
            <use
               xlink:href="#DejaVuSans-80"
               id="use2757" />
            <use
               x="58.552734"
               xlink:href="#DejaVuSans-114"
               id="use2759" />
            <use
               x="97.416016"
               xlink:href="#DejaVuSans-111"
               id="use2761" />
            <use
               x="158.597656"
               xlink:href="#DejaVuSans-98"
               id="use2763" />
            <use
               x="222.074219"
               xlink:href="#DejaVuSans-97"
               id="use2765" />
            <use
               x="283.353516"
               xlink:href="#DejaVuSans-98"
               id="use2767" />
            <use
               x="346.830078"
               xlink:href="#DejaVuSans-105"
               id="use2769" />
            <use
               x="374.613281"
               xlink:href="#DejaVuSans-108"
               id="use2771" />
            <use
               x="402.396484"
               xlink:href="#DejaVuSans-105"
               id="use2773" />
            <use
               x="430.179688"
               xlink:href="#DejaVuSans-116"
               id="use2775" />
            <use
               x="469.388672"
               xlink:href="#DejaVuSans-121"
               id="use2777" />
            <use
               x="528.568359"
               xlink:href="#DejaVuSans-32"
               id="use2779" />
            <use
               x="560.355469"
               xlink:href="#DejaVuSans-111"
               id="use2781" />
            <use
               x="621.537109"
               xlink:href="#DejaVuSans-102"
               id="use2783" />
            <use
               x="656.742188"
               xlink:href="#DejaVuSans-32"
               id="use2785" />
            <use
               x="688.529297"
               xlink:href="#DejaVuSans-80"
               id="use2787" />
            <use
               x="745.207031"
               xlink:href="#DejaVuSans-111"
               id="use2789" />
            <use
               x="806.388672"
               xlink:href="#DejaVuSans-115"
               id="use2791" />
            <use
               x="858.488281"
               xlink:href="#DejaVuSans-105"
               id="use2793" />
            <use
               x="886.271484"
               xlink:href="#DejaVuSans-116"
               id="use2795" />
            <use
               x="925.480469"
               xlink:href="#DejaVuSans-105"
               id="use2797" />
            <use
               x="953.263672"
               xlink:href="#DejaVuSans-118"
               id="use2799" />
            <use
               x="1012.443359"
               xlink:href="#DejaVuSans-101"
               id="use2801" />
            <use
               x="1073.966797"
               xlink:href="#DejaVuSans-32"
               id="use2803" />
            <use
               x="1105.753906"
               xlink:href="#DejaVuSans-76"
               id="use2805" />
            <use
               x="1161.466797"
               xlink:href="#DejaVuSans-97"
               id="use2807" />
            <use
               x="1222.746094"
               xlink:href="#DejaVuSans-98"
               id="use2809" />
            <use
               x="1286.222656"
               xlink:href="#DejaVuSans-101"
               id="use2811" />
            <use
               x="1347.746094"
               xlink:href="#DejaVuSans-108"
               id="use2813" />
          </g>
        </g>
      </g>
      <g
         id="matplotlib.axis_2">
        <g
           id="ytick_1">
          <g
             id="line2d_7">
            <path
               clip-path="url(#p1510ce0f4d)"
               d="M 90 504  L 648 504  "
               style="fill:none;stroke:#ffffff;stroke-linecap:round;"
               id="path2819" />
          </g>
          <g
             id="text_8">
            <!-- 0 -->
            <g
               style="fill:#262626;"
               transform="translate(71.365 508.559062)scale(0.12 -0.12)"
               id="g2824">
              <use
                 xlink:href="#DejaVuSans-48"
                 id="use2822" />
            </g>
          </g>
        </g>
        <g
           id="ytick_2">
          <g
             id="line2d_8">
            <path
               clip-path="url(#p1510ce0f4d)"
               d="M 90 412.772813  L 648 412.772813  "
               style="fill:none;stroke:#ffffff;stroke-linecap:round;"
               id="path2828" />
          </g>
          <g
             id="text_9">
            <!-- 200 -->
            <g
               style="fill:#262626;"
               transform="translate(56.095 417.331876)scale(0.12 -0.12)"
               id="g2837">
              <use
                 xlink:href="#DejaVuSans-50"
                 id="use2831" />
              <use
                 x="63.623047"
                 xlink:href="#DejaVuSans-48"
                 id="use2833" />
              <use
                 x="127.246094"
                 xlink:href="#DejaVuSans-48"
                 id="use2835" />
            </g>
          </g>
        </g>
        <g
           id="ytick_3">
          <g
             id="line2d_9">
            <path
               clip-path="url(#p1510ce0f4d)"
               d="M 90 321.545626  L 648 321.545626  "
               style="fill:none;stroke:#ffffff;stroke-linecap:round;"
               id="path2841" />
          </g>
          <g
             id="text_10">
            <!-- 400 -->
            <g
               style="fill:#262626;"
               transform="translate(56.095 326.104689)scale(0.12 -0.12)"
               id="g2850">
              <use
                 xlink:href="#DejaVuSans-52"
                 id="use2844" />
              <use
                 x="63.623047"
                 xlink:href="#DejaVuSans-48"
                 id="use2846" />
              <use
                 x="127.246094"
                 xlink:href="#DejaVuSans-48"
                 id="use2848" />
            </g>
          </g>
        </g>
        <g
           id="ytick_4">
          <g
             id="line2d_10">
            <path
               clip-path="url(#p1510ce0f4d)"
               d="M 90 230.318439  L 648 230.318439  "
               style="fill:none;stroke:#ffffff;stroke-linecap:round;"
               id="path2854" />
          </g>
          <g
             id="text_11">
            <!-- 600 -->
            <g
               style="fill:#262626;"
               transform="translate(56.095 234.877502)scale(0.12 -0.12)"
               id="g2863">
              <use
                 xlink:href="#DejaVuSans-54"
                 id="use2857" />
              <use
                 x="63.623047"
                 xlink:href="#DejaVuSans-48"
                 id="use2859" />
              <use
                 x="127.246094"
                 xlink:href="#DejaVuSans-48"
                 id="use2861" />
            </g>
          </g>
        </g>
        <g
           id="ytick_5">
          <g
             id="line2d_11">
            <path
               clip-path="url(#p1510ce0f4d)"
               d="M 90 139.091252  L 648 139.091252  "
               style="fill:none;stroke:#ffffff;stroke-linecap:round;"
               id="path2867" />
          </g>
          <g
             id="text_12">
            <!-- 800 -->
            <g
               style="fill:#262626;"
               transform="translate(56.095 143.650315)scale(0.12 -0.12)"
               id="g2876">
              <use
                 xlink:href="#DejaVuSans-56"
                 id="use2870" />
              <use
                 x="63.623047"
                 xlink:href="#DejaVuSans-48"
                 id="use2872" />
              <use
                 x="127.246094"
                 xlink:href="#DejaVuSans-48"
                 id="use2874" />
            </g>
          </g>
        </g>
        <g
           id="text_13">
          <!-- Count -->
          <defs
             id="defs2883">
            <path
               d="M 64.40625 67.28125  L 64.40625 56.890625  Q 59.421875 61.53125 53.78125 63.8125  Q 48.140625 66.109375 41.796875 66.109375  Q 29.296875 66.109375 22.65625 58.46875  Q 16.015625 50.828125 16.015625 36.375  Q 16.015625 21.96875 22.65625 14.328125  Q 29.296875 6.6875 41.796875 6.6875  Q 48.140625 6.6875 53.78125 8.984375  Q 59.421875 11.28125 64.40625 15.921875  L 64.40625 5.609375  Q 59.234375 2.09375 53.4375 0.328125  Q 47.65625 -1.421875 41.21875 -1.421875  Q 24.65625 -1.421875 15.125 8.703125  Q 5.609375 18.84375 5.609375 36.375  Q 5.609375 53.953125 15.125 64.078125  Q 24.65625 74.21875 41.21875 74.21875  Q 47.75 74.21875 53.53125 72.484375  Q 59.328125 70.75 64.40625 67.28125  z "
               id="DejaVuSans-67" />
            <path
               d="M 8.5 21.578125  L 8.5 54.6875  L 17.484375 54.6875  L 17.484375 21.921875  Q 17.484375 14.15625 20.5 10.265625  Q 23.53125 6.390625 29.59375 6.390625  Q 36.859375 6.390625 41.078125 11.03125  Q 45.3125 15.671875 45.3125 23.6875  L 45.3125 54.6875  L 54.296875 54.6875  L 54.296875 0  L 45.3125 0  L 45.3125 8.40625  Q 42.046875 3.421875 37.71875 1  Q 33.40625 -1.421875 27.6875 -1.421875  Q 18.265625 -1.421875 13.375 4.4375  Q 8.5 10.296875 8.5 21.578125  z M 31.109375 56  z "
               id="DejaVuSans-117" />
            <path
               d="M 54.890625 33.015625  L 54.890625 0  L 45.90625 0  L 45.90625 32.71875  Q 45.90625 40.484375 42.875 44.328125  Q 39.84375 48.1875 33.796875 48.1875  Q 26.515625 48.1875 22.3125 43.546875  Q 18.109375 38.921875 18.109375 30.90625  L 18.109375 0  L 9.078125 0  L 9.078125 54.6875  L 18.109375 54.6875  L 18.109375 46.1875  Q 21.34375 51.125 25.703125 53.5625  Q 30.078125 56 35.796875 56  Q 45.21875 56 50.046875 50.171875  Q 54.890625 44.34375 54.890625 33.015625  z "
               id="DejaVuSans-110" />
          </defs>
          <g
             style="fill:#262626;"
             transform="translate(49.599375 304.378125)rotate(-90)scale(0.12 -0.12)"
             id="g2895">
            <use
               xlink:href="#DejaVuSans-67"
               id="use2885" />
            <use
               x="69.824219"
               xlink:href="#DejaVuSans-111"
               id="use2887" />
            <use
               x="131.005859"
               xlink:href="#DejaVuSans-117"
               id="use2889" />
            <use
               x="194.384766"
               xlink:href="#DejaVuSans-110"
               id="use2891" />
            <use
               x="257.763672"
               xlink:href="#DejaVuSans-116"
               id="use2893" />
          </g>
        </g>
      </g>
      <g
         id="patch_3">
        <path
           clip-path="url(#p1510ce0f4d)"
           d="M 93.929059 504  L 104.857923 504  L 104.857923 481.649339  L 93.929059 481.649339  z "
           style="fill:#0000ff;stroke:#ffffff;stroke-linejoin:miter;"
           id="path2899" />
      </g>
      <g
         id="patch_4">
        <path
           clip-path="url(#p1510ce0f4d)"
           d="M 104.857922 504  L 115.786786 504  L 115.786786 417.334172  L 104.857922 417.334172  z "
           style="fill:#0000ff;stroke:#ffffff;stroke-linejoin:miter;"
           id="path2902" />
      </g>
      <g
         id="patch_5">
        <path
           clip-path="url(#p1510ce0f4d)"
           d="M 115.786786 504  L 126.715646 504  L 126.715646 356.668093  L 115.786786 356.668093  z "
           style="fill:#0000ff;stroke:#ffffff;stroke-linejoin:miter;"
           id="path2905" />
      </g>
      <g
         id="patch_6">
        <path
           clip-path="url(#p1510ce0f4d)"
           d="M 126.715654 504  L 137.644522 504  L 137.644522 316.984267  L 126.715654 316.984267  z "
           style="fill:#0000ff;stroke:#ffffff;stroke-linejoin:miter;"
           id="path2908" />
      </g>
      <g
         id="patch_7">
        <path
           clip-path="url(#p1510ce0f4d)"
           d="M 137.644517 504  L 148.573381 504  L 148.573381 311.510636  L 137.644517 311.510636  z "
           style="fill:#0000ff;stroke:#ffffff;stroke-linejoin:miter;"
           id="path2911" />
      </g>
      <g
         id="patch_8">
        <path
           clip-path="url(#p1510ce0f4d)"
           d="M 148.573381 504  L 159.502244 504  L 159.502244 279.58112  L 148.573381 279.58112  z "
           style="fill:#0000ff;stroke:#ffffff;stroke-linejoin:miter;"
           id="path2914" />
      </g>
      <g
         id="patch_9">
        <path
           clip-path="url(#p1510ce0f4d)"
           d="M 159.502244 504  L 170.431108 504  L 170.431108 292.352926  L 159.502244 292.352926  z "
           style="fill:#0000ff;stroke:#ffffff;stroke-linejoin:miter;"
           id="path2917" />
      </g>
      <g
         id="patch_10">
        <path
           clip-path="url(#p1510ce0f4d)"
           d="M 170.431108 504  L 181.359972 504  L 181.359972 295.089742  L 170.431108 295.089742  z "
           style="fill:#0000ff;stroke:#ffffff;stroke-linejoin:miter;"
           id="path2920" />
      </g>
      <g
         id="patch_11">
        <path
           clip-path="url(#p1510ce0f4d)"
           d="M 181.359972 504  L 192.288835 504  L 192.288835 292.352926  L 181.359972 292.352926  z "
           style="fill:#0000ff;stroke:#ffffff;stroke-linejoin:miter;"
           id="path2923" />
      </g>
      <g
         id="patch_12">
        <path
           clip-path="url(#p1510ce0f4d)"
           d="M 192.288835 504  L 203.217699 504  L 203.217699 265.897042  L 192.288835 265.897042  z "
           style="fill:#0000ff;stroke:#ffffff;stroke-linejoin:miter;"
           id="path2926" />
      </g>
      <g
         id="patch_13">
        <path
           clip-path="url(#p1510ce0f4d)"
           d="M 203.217699 504  L 214.146562 504  L 214.146562 236.248206  L 203.217699 236.248206  z "
           style="fill:#0000ff;stroke:#ffffff;stroke-linejoin:miter;"
           id="path2929" />
      </g>
      <g
         id="patch_14">
        <path
           clip-path="url(#p1510ce0f4d)"
           d="M 214.146562 504  L 225.075434 504  L 225.075434 247.195469  L 214.146562 247.195469  z "
           style="fill:#0000ff;stroke:#ffffff;stroke-linejoin:miter;"
           id="path2932" />
      </g>
      <g
         id="patch_15">
        <path
           clip-path="url(#p1510ce0f4d)"
           d="M 225.075426 504  L 236.004289 504  L 236.004289 229.406167  L 225.075426 229.406167  z "
           style="fill:#0000ff;stroke:#ffffff;stroke-linejoin:miter;"
           id="path2935" />
      </g>
      <g
         id="patch_16">
        <path
           clip-path="url(#p1510ce0f4d)"
           d="M 236.004289 504  L 246.933153 504  L 246.933153 198.84506  L 236.004289 198.84506  z "
           style="fill:#0000ff;stroke:#ffffff;stroke-linejoin:miter;"
           id="path2938" />
      </g>
      <g
         id="patch_17">
        <path
           clip-path="url(#p1510ce0f4d)"
           d="M 246.933153 504  L 257.862016 504  L 257.862016 179.687351  L 246.933153 179.687351  z "
           style="fill:#0000ff;stroke:#ffffff;stroke-linejoin:miter;"
           id="path2941" />
      </g>
      <g
         id="patch_18">
        <path
           clip-path="url(#p1510ce0f4d)"
           d="M 257.862016 504  L 268.79088 504  L 268.79088 152.319194  L 257.862016 152.319194  z "
           style="fill:#0000ff;stroke:#ffffff;stroke-linejoin:miter;"
           id="path2944" />
      </g>
      <g
         id="patch_19">
        <path
           clip-path="url(#p1510ce0f4d)"
           d="M 268.79088 504  L 279.71976 504  L 279.71976 91.196979  L 268.79088 91.196979  z "
           style="fill:#0000ff;stroke:#ffffff;stroke-linejoin:miter;"
           id="path2947" />
      </g>
      <g
         id="patch_20">
        <path
           clip-path="url(#p1510ce0f4d)"
           d="M 279.71976 504  L 290.648624 504  L 290.648624 208.423914  L 279.71976 208.423914  z "
           style="fill:#0000ff;stroke:#ffffff;stroke-linejoin:miter;"
           id="path2950" />
      </g>
      <g
         id="patch_21">
        <path
           clip-path="url(#p1510ce0f4d)"
           d="M 290.648624 504  L 301.577487 504  L 301.577487 89.828571  L 290.648624 89.828571  z "
           style="fill:#0000ff;stroke:#ffffff;stroke-linejoin:miter;"
           id="path2953" />
      </g>
      <g
         id="patch_22">
        <path
           clip-path="url(#p1510ce0f4d)"
           d="M 301.577487 504  L 312.506351 504  L 312.506351 205.230963  L 301.577487 205.230963  z "
           style="fill:#0000ff;stroke:#ffffff;stroke-linejoin:miter;"
           id="path2956" />
      </g>
      <g
         id="patch_23">
        <path
           clip-path="url(#p1510ce0f4d)"
           d="M 312.506351 504  L 323.435214 504  L 323.435214 227.581624  L 312.506351 227.581624  z "
           style="fill:#0000ff;stroke:#ffffff;stroke-linejoin:miter;"
           id="path2959" />
      </g>
      <g
         id="patch_24">
        <path
           clip-path="url(#p1510ce0f4d)"
           d="M 323.435214 504  L 334.364078 504  L 334.364078 264.98477  L 323.435214 264.98477  z "
           style="fill:#0000ff;stroke:#ffffff;stroke-linejoin:miter;"
           id="path2962" />
      </g>
      <g
         id="patch_25">
        <path
           clip-path="url(#p1510ce0f4d)"
           d="M 334.364078 504  L 345.292941 504  L 345.292941 303.756325  L 334.364078 303.756325  z "
           style="fill:#0000ff;stroke:#ffffff;stroke-linejoin:miter;"
           id="path2965" />
      </g>
      <g
         id="patch_26">
        <path
           clip-path="url(#p1510ce0f4d)"
           d="M 345.292941 504  L 356.221805 504  L 356.221805 290.072247  L 345.292941 290.072247  z "
           style="fill:#0000ff;stroke:#ffffff;stroke-linejoin:miter;"
           id="path2968" />
      </g>
      <g
         id="patch_27">
        <path
           clip-path="url(#p1510ce0f4d)"
           d="M 356.221805 504  L 367.150668 504  L 367.150668 337.054248  L 356.221805 337.054248  z "
           style="fill:#0000ff;stroke:#ffffff;stroke-linejoin:miter;"
           id="path2971" />
      </g>
      <g
         id="patch_28">
        <path
           clip-path="url(#p1510ce0f4d)"
           d="M 367.150652 504  L 378.079482 504  L 378.079482 355.755821  L 367.150652 355.755821  z "
           style="fill:#0000ff;stroke:#ffffff;stroke-linejoin:miter;"
           id="path2974" />
      </g>
      <g
         id="patch_29">
        <path
           clip-path="url(#p1510ce0f4d)"
           d="M 378.079515 504  L 389.008379 504  L 389.008379 375.369666  L 378.079515 375.369666  z "
           style="fill:#0000ff;stroke:#ffffff;stroke-linejoin:miter;"
           id="path2977" />
      </g>
      <g
         id="patch_30">
        <path
           clip-path="url(#p1510ce0f4d)"
           d="M 389.008412 504  L 399.937309 504  L 399.937309 408.211454  L 389.008412 408.211454  z "
           style="fill:#0000ff;stroke:#ffffff;stroke-linejoin:miter;"
           id="path2980" />
      </g>
      <g
         id="patch_31">
        <path
           clip-path="url(#p1510ce0f4d)"
           d="M 399.937275 504  L 410.866139 504  L 410.866139 385.404657  L 399.937275 385.404657  z "
           style="fill:#0000ff;stroke:#ffffff;stroke-linejoin:miter;"
           id="path2983" />
      </g>
      <g
         id="patch_32">
        <path
           clip-path="url(#p1510ce0f4d)"
           d="M 410.866139 504  L 421.795003 504  L 421.795003 396.351919  L 410.866139 396.351919  z "
           style="fill:#0000ff;stroke:#ffffff;stroke-linejoin:miter;"
           id="path2986" />
      </g>
      <g
         id="patch_33">
        <path
           clip-path="url(#p1510ce0f4d)"
           d="M 421.795003 504  L 432.723866 504  L 432.723866 425.544619  L 421.795003 425.544619  z "
           style="fill:#0000ff;stroke:#ffffff;stroke-linejoin:miter;"
           id="path2989" />
      </g>
      <g
         id="patch_34">
        <path
           clip-path="url(#p1510ce0f4d)"
           d="M 432.723866 504  L 443.65273 504  L 443.65273 432.842794  L 432.723866 432.842794  z "
           style="fill:#0000ff;stroke:#ffffff;stroke-linejoin:miter;"
           id="path2992" />
      </g>
      <g
         id="patch_35">
        <path
           clip-path="url(#p1510ce0f4d)"
           d="M 443.65273 504  L 454.581593 504  L 454.581593 436.491882  L 443.65273 436.491882  z "
           style="fill:#0000ff;stroke:#ffffff;stroke-linejoin:miter;"
           id="path2995" />
      </g>
      <g
         id="patch_36">
        <path
           clip-path="url(#p1510ce0f4d)"
           d="M 454.581593 504  L 465.510457 504  L 465.510457 450.17596  L 454.581593 450.17596  z "
           style="fill:#0000ff;stroke:#ffffff;stroke-linejoin:miter;"
           id="path2998" />
      </g>
      <g
         id="patch_37">
        <path
           clip-path="url(#p1510ce0f4d)"
           d="M 465.510457 504  L 476.43932 504  L 476.43932 447.439144  L 465.510457 447.439144  z "
           style="fill:#0000ff;stroke:#ffffff;stroke-linejoin:miter;"
           id="path3001" />
      </g>
      <g
         id="patch_38">
        <path
           clip-path="url(#p1510ce0f4d)"
           d="M 476.43932 504  L 487.368184 504  L 487.368184 457.017999  L 476.43932 457.017999  z "
           style="fill:#0000ff;stroke:#ffffff;stroke-linejoin:miter;"
           id="path3004" />
      </g>
      <g
         id="patch_39">
        <path
           clip-path="url(#p1510ce0f4d)"
           d="M 487.368184 504  L 498.297047 504  L 498.297047 458.386407  L 487.368184 458.386407  z "
           style="fill:#0000ff;stroke:#ffffff;stroke-linejoin:miter;"
           id="path3007" />
      </g>
      <g
         id="patch_40">
        <path
           clip-path="url(#p1510ce0f4d)"
           d="M 498.297047 504  L 509.225911 504  L 509.225911 452.456639  L 498.297047 452.456639  z "
           style="fill:#0000ff;stroke:#ffffff;stroke-linejoin:miter;"
           id="path3010" />
      </g>
      <g
         id="patch_41">
        <path
           clip-path="url(#p1510ce0f4d)"
           d="M 509.225911 504  L 520.154774 504  L 520.154774 462.035494  L 509.225911 462.035494  z "
           style="fill:#0000ff;stroke:#ffffff;stroke-linejoin:miter;"
           id="path3013" />
      </g>
      <g
         id="patch_42">
        <path
           clip-path="url(#p1510ce0f4d)"
           d="M 520.154774 504  L 531.083638 504  L 531.083638 454.737319  L 520.154774 454.737319  z "
           style="fill:#0000ff;stroke:#ffffff;stroke-linejoin:miter;"
           id="path3016" />
      </g>
      <g
         id="patch_43">
        <path
           clip-path="url(#p1510ce0f4d)"
           d="M 531.083638 504  L 542.012501 504  L 542.012501 472.526621  L 531.083638 472.526621  z "
           style="fill:#0000ff;stroke:#ffffff;stroke-linejoin:miter;"
           id="path3019" />
      </g>
      <g
         id="patch_44">
        <path
           clip-path="url(#p1510ce0f4d)"
           d="M 542.012501 504  L 552.941365 504  L 552.941365 465.228446  L 542.012501 465.228446  z "
           style="fill:#0000ff;stroke:#ffffff;stroke-linejoin:miter;"
           id="path3022" />
      </g>
      <g
         id="patch_45">
        <path
           clip-path="url(#p1510ce0f4d)"
           d="M 552.941365 504  L 563.870229 504  L 563.870229 470.702077  L 552.941365 470.702077  z "
           style="fill:#0000ff;stroke:#ffffff;stroke-linejoin:miter;"
           id="path3025" />
      </g>
      <g
         id="patch_46">
        <path
           clip-path="url(#p1510ce0f4d)"
           d="M 563.870229 504  L 574.799092 504  L 574.799092 473.895028  L 563.870229 473.895028  z "
           style="fill:#0000ff;stroke:#ffffff;stroke-linejoin:miter;"
           id="path3028" />
      </g>
      <g
         id="patch_47">
        <path
           clip-path="url(#p1510ce0f4d)"
           d="M 574.799092 504  L 585.727956 504  L 585.727956 476.631844  L 574.799092 476.631844  z "
           style="fill:#0000ff;stroke:#ffffff;stroke-linejoin:miter;"
           id="path3031" />
      </g>
      <g
         id="patch_48">
        <path
           clip-path="url(#p1510ce0f4d)"
           d="M 585.727956 504  L 596.656819 504  L 596.656819 478.456388  L 585.727956 478.456388  z "
           style="fill:#0000ff;stroke:#ffffff;stroke-linejoin:miter;"
           id="path3034" />
      </g>
      <g
         id="patch_49">
        <path
           clip-path="url(#p1510ce0f4d)"
           d="M 596.656819 504  L 607.585683 504  L 607.585683 479.36866  L 596.656819 479.36866  z "
           style="fill:#0000ff;stroke:#ffffff;stroke-linejoin:miter;"
           id="path3037" />
      </g>
      <g
         id="patch_50">
        <path
           clip-path="url(#p1510ce0f4d)"
           d="M 607.585683 504  L 618.514546 504  L 618.514546 484.386155  L 607.585683 484.386155  z "
           style="fill:#0000ff;stroke:#ffffff;stroke-linejoin:miter;"
           id="path3040" />
      </g>
      <g
         id="patch_51">
        <path
           clip-path="url(#p1510ce0f4d)"
           d="M 618.514546 504  L 629.44341 504  L 629.44341 487.12297  L 618.514546 487.12297  z "
           style="fill:#0000ff;stroke:#ffffff;stroke-linejoin:miter;"
           id="path3043" />
      </g>
      <g
         id="patch_52">
        <path
           clip-path="url(#p1510ce0f4d)"
           d="M 629.44341 504  L 640.372273 504  L 640.372273 496.701825  L 629.44341 496.701825  z "
           style="fill:#0000ff;stroke:#ffffff;stroke-linejoin:miter;"
           id="path3046" />
      </g>
      <g
         id="patch_53">
        <path
           clip-path="url(#p1510ce0f4d)"
           d="M 98.883487 504  L 109.825806 504  L 109.825806 502.175456  L 98.883487 502.175456  z "
           style="fill:#ff0000;opacity:0.7;stroke:#ffffff;stroke-linejoin:miter;"
           id="path3049" />
      </g>
      <g
         id="patch_54">
        <path
           clip-path="url(#p1510ce0f4d)"
           d="M 109.825804 504  L 120.768125 504  L 120.768125 495.333417  L 109.825804 495.333417  z "
           style="fill:#ff0000;opacity:0.7;stroke:#ffffff;stroke-linejoin:miter;"
           id="path3052" />
      </g>
      <g
         id="patch_55">
        <path
           clip-path="url(#p1510ce0f4d)"
           d="M 120.768125 504  L 131.710446 504  L 131.710446 493.508874  L 120.768125 493.508874  z "
           style="fill:#ff0000;opacity:0.7;stroke:#ffffff;stroke-linejoin:miter;"
           id="path3055" />
      </g>
      <g
         id="patch_56">
        <path
           clip-path="url(#p1510ce0f4d)"
           d="M 131.710446 504  L 142.652769 504  L 142.652769 491.68433  L 131.710446 491.68433  z "
           style="fill:#ff0000;opacity:0.7;stroke:#ffffff;stroke-linejoin:miter;"
           id="path3058" />
      </g>
      <g
         id="patch_57">
        <path
           clip-path="url(#p1510ce0f4d)"
           d="M 142.652769 504  L 153.595089 504  L 153.595089 493.965009  L 142.652769 493.965009  z "
           style="fill:#ff0000;opacity:0.7;stroke:#ffffff;stroke-linejoin:miter;"
           id="path3061" />
      </g>
      <g
         id="patch_58">
        <path
           clip-path="url(#p1510ce0f4d)"
           d="M 153.595084 504  L 164.537408 504  L 164.537408 486.666834  L 153.595084 486.666834  z "
           style="fill:#ff0000;opacity:0.7;stroke:#ffffff;stroke-linejoin:miter;"
           id="path3064" />
      </g>
      <g
         id="patch_59">
        <path
           clip-path="url(#p1510ce0f4d)"
           d="M 164.537408 504  L 175.479731 504  L 175.479731 491.228194  L 164.537408 491.228194  z "
           style="fill:#ff0000;opacity:0.7;stroke:#ffffff;stroke-linejoin:miter;"
           id="path3067" />
      </g>
      <g
         id="patch_60">
        <path
           clip-path="url(#p1510ce0f4d)"
           d="M 175.479731 504  L 186.422054 504  L 186.422054 486.666834  L 175.479731 486.666834  z "
           style="fill:#ff0000;opacity:0.7;stroke:#ffffff;stroke-linejoin:miter;"
           id="path3070" />
      </g>
      <g
         id="patch_61">
        <path
           clip-path="url(#p1510ce0f4d)"
           d="M 186.422054 504  L 197.364369 504  L 197.364369 491.228194  L 186.422054 491.228194  z "
           style="fill:#ff0000;opacity:0.7;stroke:#ffffff;stroke-linejoin:miter;"
           id="path3073" />
      </g>
      <g
         id="patch_62">
        <path
           clip-path="url(#p1510ce0f4d)"
           d="M 197.364369 504  L 208.306693 504  L 208.306693 488.491378  L 197.364369 488.491378  z "
           style="fill:#ff0000;opacity:0.7;stroke:#ffffff;stroke-linejoin:miter;"
           id="path3076" />
      </g>
      <g
         id="patch_63">
        <path
           clip-path="url(#p1510ce0f4d)"
           d="M 208.306693 504  L 219.249016 504  L 219.249016 484.842291  L 208.306693 484.842291  z "
           style="fill:#ff0000;opacity:0.7;stroke:#ffffff;stroke-linejoin:miter;"
           id="path3079" />
      </g>
      <g
         id="patch_64">
        <path
           clip-path="url(#p1510ce0f4d)"
           d="M 219.249024 504  L 230.191331 504  L 230.191331 482.561611  L 219.249024 482.561611  z "
           style="fill:#ff0000;opacity:0.7;stroke:#ffffff;stroke-linejoin:miter;"
           id="path3082" />
      </g>
      <g
         id="patch_65">
        <path
           clip-path="url(#p1510ce0f4d)"
           d="M 230.191331 504  L 241.133654 504  L 241.133654 472.070485  L 230.191331 472.070485  z "
           style="fill:#ff0000;opacity:0.7;stroke:#ffffff;stroke-linejoin:miter;"
           id="path3085" />
      </g>
      <g
         id="patch_66">
        <path
           clip-path="url(#p1510ce0f4d)"
           d="M 241.133638 504  L 252.075961 504  L 252.075961 473.895028  L 241.133638 473.895028  z "
           style="fill:#ff0000;opacity:0.7;stroke:#ffffff;stroke-linejoin:miter;"
           id="path3088" />
      </g>
      <g
         id="patch_67">
        <path
           clip-path="url(#p1510ce0f4d)"
           d="M 252.075978 504  L 263.018301 504  L 263.018301 463.860038  L 252.075978 463.860038  z "
           style="fill:#ff0000;opacity:0.7;stroke:#ffffff;stroke-linejoin:miter;"
           id="path3091" />
      </g>
      <g
         id="patch_68">
        <path
           clip-path="url(#p1510ce0f4d)"
           d="M 263.018301 504  L 273.960608 504  L 273.960608 468.421397  L 263.018301 468.421397  z "
           style="fill:#ff0000;opacity:0.7;stroke:#ffffff;stroke-linejoin:miter;"
           id="path3094" />
      </g>
      <g
         id="patch_69">
        <path
           clip-path="url(#p1510ce0f4d)"
           d="M 273.960591 504  L 284.902914 504  L 284.902914 473.895028  L 273.960591 473.895028  z "
           style="fill:#ff0000;opacity:0.7;stroke:#ffffff;stroke-linejoin:miter;"
           id="path3097" />
      </g>
      <g
         id="patch_70">
        <path
           clip-path="url(#p1510ce0f4d)"
           d="M 284.902931 504  L 295.845254 504  L 295.845254 466.596853  L 284.902931 466.596853  z "
           style="fill:#ff0000;opacity:0.7;stroke:#ffffff;stroke-linejoin:miter;"
           id="path3100" />
      </g>
      <g
         id="patch_71">
        <path
           clip-path="url(#p1510ce0f4d)"
           d="M 295.845238 504  L 306.787561 504  L 306.787561 465.228446  L 295.845238 465.228446  z "
           style="fill:#ff0000;opacity:0.7;stroke:#ffffff;stroke-linejoin:miter;"
           id="path3103" />
      </g>
      <g
         id="patch_72">
        <path
           clip-path="url(#p1510ce0f4d)"
           d="M 306.787577 504  L 317.729901 504  L 317.729901 475.263436  L 306.787577 475.263436  z "
           style="fill:#ff0000;opacity:0.7;stroke:#ffffff;stroke-linejoin:miter;"
           id="path3106" />
      </g>
      <g
         id="patch_73">
        <path
           clip-path="url(#p1510ce0f4d)"
           d="M 317.729884 504  L 328.672207 504  L 328.672207 473.438892  L 317.729884 473.438892  z "
           style="fill:#ff0000;opacity:0.7;stroke:#ffffff;stroke-linejoin:miter;"
           id="path3109" />
      </g>
      <g
         id="patch_74">
        <path
           clip-path="url(#p1510ce0f4d)"
           d="M 328.672224 504  L 339.614547 504  L 339.614547 474.351164  L 328.672224 474.351164  z "
           style="fill:#ff0000;opacity:0.7;stroke:#ffffff;stroke-linejoin:miter;"
           id="path3112" />
      </g>
      <g
         id="patch_75">
        <path
           clip-path="url(#p1510ce0f4d)"
           d="M 339.614547 504  L 350.556854 504  L 350.556854 475.263436  L 339.614547 475.263436  z "
           style="fill:#ff0000;opacity:0.7;stroke:#ffffff;stroke-linejoin:miter;"
           id="path3115" />
      </g>
      <g
         id="patch_76">
        <path
           clip-path="url(#p1510ce0f4d)"
           d="M 350.556837 504  L 361.499161 504  L 361.499161 470.245941  L 350.556837 470.245941  z "
           style="fill:#ff0000;opacity:0.7;stroke:#ffffff;stroke-linejoin:miter;"
           id="path3118" />
      </g>
      <g
         id="patch_77">
        <path
           clip-path="url(#p1510ce0f4d)"
           d="M 361.499177 504  L 372.441517 504  L 372.441517 470.702077  L 361.499177 470.702077  z "
           style="fill:#ff0000;opacity:0.7;stroke:#ffffff;stroke-linejoin:miter;"
           id="path3121" />
      </g>
      <g
         id="patch_78">
        <path
           clip-path="url(#p1510ce0f4d)"
           d="M 372.441517 504  L 383.383824 504  L 383.383824 482.105475  L 372.441517 482.105475  z "
           style="fill:#ff0000;opacity:0.7;stroke:#ffffff;stroke-linejoin:miter;"
           id="path3124" />
      </g>
      <g
         id="patch_79">
        <path
           clip-path="url(#p1510ce0f4d)"
           d="M 383.383857 504  L 394.326164 504  L 394.326164 479.824795  L 383.383857 479.824795  z "
           style="fill:#ff0000;opacity:0.7;stroke:#ffffff;stroke-linejoin:miter;"
           id="path3127" />
      </g>
      <g
         id="patch_80">
        <path
           clip-path="url(#p1510ce0f4d)"
           d="M 394.326131 504  L 405.268471 504  L 405.268471 483.017747  L 394.326131 483.017747  z "
           style="fill:#ff0000;opacity:0.7;stroke:#ffffff;stroke-linejoin:miter;"
           id="path3130" />
      </g>
      <g
         id="patch_81">
        <path
           clip-path="url(#p1510ce0f4d)"
           d="M 405.268471 504  L 416.210777 504  L 416.210777 476.631844  L 405.268471 476.631844  z "
           style="fill:#ff0000;opacity:0.7;stroke:#ffffff;stroke-linejoin:miter;"
           id="path3133" />
      </g>
      <g
         id="patch_82">
        <path
           clip-path="url(#p1510ce0f4d)"
           d="M 416.210777 504  L 427.153117 504  L 427.153117 484.842291  L 416.210777 484.842291  z "
           style="fill:#ff0000;opacity:0.7;stroke:#ffffff;stroke-linejoin:miter;"
           id="path3136" />
      </g>
      <g
         id="patch_83">
        <path
           clip-path="url(#p1510ce0f4d)"
           d="M 427.15315 504  L 438.095457 504  L 438.095457 485.754563  L 427.15315 485.754563  z "
           style="fill:#ff0000;opacity:0.7;stroke:#ffffff;stroke-linejoin:miter;"
           id="path3139" />
      </g>
      <g
         id="patch_84">
        <path
           clip-path="url(#p1510ce0f4d)"
           d="M 438.095424 504  L 449.037731 504  L 449.037731 479.824795  L 438.095424 479.824795  z "
           style="fill:#ff0000;opacity:0.7;stroke:#ffffff;stroke-linejoin:miter;"
           id="path3142" />
      </g>
      <g
         id="patch_85">
        <path
           clip-path="url(#p1510ce0f4d)"
           d="M 449.037731 504  L 459.98007 504  L 459.98007 483.017747  L 449.037731 483.017747  z "
           style="fill:#ff0000;opacity:0.7;stroke:#ffffff;stroke-linejoin:miter;"
           id="path3145" />
      </g>
      <g
         id="patch_86">
        <path
           clip-path="url(#p1510ce0f4d)"
           d="M 459.980104 504  L 470.92241 504  L 470.92241 482.105475  L 459.980104 482.105475  z "
           style="fill:#ff0000;opacity:0.7;stroke:#ffffff;stroke-linejoin:miter;"
           id="path3148" />
      </g>
      <g
         id="patch_87">
        <path
           clip-path="url(#p1510ce0f4d)"
           d="M 470.922377 504  L 481.864717 504  L 481.864717 482.561611  L 470.922377 482.561611  z "
           style="fill:#ff0000;opacity:0.7;stroke:#ffffff;stroke-linejoin:miter;"
           id="path3151" />
      </g>
      <g
         id="patch_88">
        <path
           clip-path="url(#p1510ce0f4d)"
           d="M 481.864717 504  L 492.807024 504  L 492.807024 488.947514  L 481.864717 488.947514  z "
           style="fill:#ff0000;opacity:0.7;stroke:#ffffff;stroke-linejoin:miter;"
           id="path3154" />
      </g>
      <g
         id="patch_89">
        <path
           clip-path="url(#p1510ce0f4d)"
           d="M 492.807024 504  L 503.749364 504  L 503.749364 482.561611  L 492.807024 482.561611  z "
           style="fill:#ff0000;opacity:0.7;stroke:#ffffff;stroke-linejoin:miter;"
           id="path3157" />
      </g>
      <g
         id="patch_90">
        <path
           clip-path="url(#p1510ce0f4d)"
           d="M 503.749397 504  L 514.691704 504  L 514.691704 486.210699  L 503.749397 486.210699  z "
           style="fill:#ff0000;opacity:0.7;stroke:#ffffff;stroke-linejoin:miter;"
           id="path3160" />
      </g>
      <g
         id="patch_91">
        <path
           clip-path="url(#p1510ce0f4d)"
           d="M 514.69167 504  L 525.633977 504  L 525.633977 483.473883  L 514.69167 483.473883  z "
           style="fill:#ff0000;opacity:0.7;stroke:#ffffff;stroke-linejoin:miter;"
           id="path3163" />
      </g>
      <g
         id="patch_92">
        <path
           clip-path="url(#p1510ce0f4d)"
           d="M 525.633977 504  L 536.576317 504  L 536.576317 486.666834  L 525.633977 486.666834  z "
           style="fill:#ff0000;opacity:0.7;stroke:#ffffff;stroke-linejoin:miter;"
           id="path3166" />
      </g>
      <g
         id="patch_93">
        <path
           clip-path="url(#p1510ce0f4d)"
           d="M 536.57635 504  L 547.518657 504  L 547.518657 484.386155  L 536.57635 484.386155  z "
           style="fill:#ff0000;opacity:0.7;stroke:#ffffff;stroke-linejoin:miter;"
           id="path3169" />
      </g>
      <g
         id="patch_94">
        <path
           clip-path="url(#p1510ce0f4d)"
           d="M 547.518624 504  L 558.460964 504  L 558.460964 483.473883  L 547.518624 483.473883  z "
           style="fill:#ff0000;opacity:0.7;stroke:#ffffff;stroke-linejoin:miter;"
           id="path3172" />
      </g>
      <g
         id="patch_95">
        <path
           clip-path="url(#p1510ce0f4d)"
           d="M 558.460964 504  L 569.40327 504  L 569.40327 478.456388  L 558.460964 478.456388  z "
           style="fill:#ff0000;opacity:0.7;stroke:#ffffff;stroke-linejoin:miter;"
           id="path3175" />
      </g>
      <g
         id="patch_96">
        <path
           clip-path="url(#p1510ce0f4d)"
           d="M 569.403303 504  L 580.34561 504  L 580.34561 468.421397  L 569.403303 468.421397  z "
           style="fill:#ff0000;opacity:0.7;stroke:#ffffff;stroke-linejoin:miter;"
           id="path3178" />
      </g>
      <g
         id="patch_97">
        <path
           clip-path="url(#p1510ce0f4d)"
           d="M 580.345577 504  L 591.287917 504  L 591.287917 469.789805  L 580.345577 469.789805  z "
           style="fill:#ff0000;opacity:0.7;stroke:#ffffff;stroke-linejoin:miter;"
           id="path3181" />
      </g>
      <g
         id="patch_98">
        <path
           clip-path="url(#p1510ce0f4d)"
           d="M 591.287917 504  L 602.230224 504  L 602.230224 466.596853  L 591.287917 466.596853  z "
           style="fill:#ff0000;opacity:0.7;stroke:#ffffff;stroke-linejoin:miter;"
           id="path3184" />
      </g>
      <g
         id="patch_99">
        <path
           clip-path="url(#p1510ce0f4d)"
           d="M 602.230224 504  L 613.172563 504  L 613.172563 452.000503  L 602.230224 452.000503  z "
           style="fill:#ff0000;opacity:0.7;stroke:#ffffff;stroke-linejoin:miter;"
           id="path3187" />
      </g>
      <g
         id="patch_100">
        <path
           clip-path="url(#p1510ce0f4d)"
           d="M 613.172597 504  L 624.114903 504  L 624.114903 440.140969  L 613.172597 440.140969  z "
           style="fill:#ff0000;opacity:0.7;stroke:#ffffff;stroke-linejoin:miter;"
           id="path3190" />
      </g>
      <g
         id="patch_101">
        <path
           clip-path="url(#p1510ce0f4d)"
           d="M 624.11487 504  L 635.05721 504  L 635.05721 425.088483  L 624.11487 425.088483  z "
           style="fill:#ff0000;opacity:0.7;stroke:#ffffff;stroke-linejoin:miter;"
           id="path3193" />
      </g>
      <g
         id="patch_102">
        <path
           clip-path="url(#p1510ce0f4d)"
           d="M 635.05721 504  L 645.999517 504  L 645.999517 431.474386  L 635.05721 431.474386  z "
           style="fill:#ff0000;opacity:0.7;stroke:#ffffff;stroke-linejoin:miter;"
           id="path3196" />
      </g>
      <g
         id="patch_103">
        <path
           d="M 90 504  L 90 69.12  "
           style="fill:none;stroke:#ffffff;stroke-linecap:square;stroke-linejoin:miter;stroke-width:1.25;"
           id="path3199" />
      </g>
      <g
         id="patch_104">
        <path
           d="M 648 504  L 648 69.12  "
           style="fill:none;stroke:#ffffff;stroke-linecap:square;stroke-linejoin:miter;stroke-width:1.25;"
           id="path3202" />
      </g>
      <g
         id="patch_105">
        <path
           d="M 90 504  L 648 504  "
           style="fill:none;stroke:#ffffff;stroke-linecap:square;stroke-linejoin:miter;stroke-width:1.25;"
           id="path3205" />
      </g>
      <g
         id="patch_106">
        <path
           d="M 90 69.12  L 648 69.12  "
           style="fill:none;stroke:#ffffff;stroke-linecap:square;stroke-linejoin:miter;stroke-width:1.25;"
           id="path3208" />
      </g>
      <g
         id="text_14">
        <!-- Multi-Tree XGBoost Model Probability Distribution -->
        <defs
           id="defs3233">
          <path
             d="M 9.1875 72.90625  L 33.109375 72.90625  L 49.703125 33.890625  L 66.40625 72.90625  L 90.28125 72.90625  L 90.28125 0  L 72.515625 0  L 72.515625 53.328125  L 55.71875 14.015625  L 43.796875 14.015625  L 27 53.328125  L 27 0  L 9.1875 0  z "
             id="DejaVuSans-Bold-77" />
          <path
             d="M 7.8125 21.296875  L 7.8125 54.6875  L 25.390625 54.6875  L 25.390625 49.21875  Q 25.390625 44.78125 25.34375 38.0625  Q 25.296875 31.34375 25.296875 29.109375  Q 25.296875 22.515625 25.640625 19.609375  Q 25.984375 16.703125 26.8125 15.375  Q 27.875 13.671875 29.609375 12.734375  Q 31.34375 11.8125 33.59375 11.8125  Q 39.0625 11.8125 42.1875 16.015625  Q 45.3125 20.21875 45.3125 27.6875  L 45.3125 54.6875  L 62.796875 54.6875  L 62.796875 0  L 45.3125 0  L 45.3125 7.90625  Q 41.359375 3.125 36.9375 0.84375  Q 32.515625 -1.421875 27.203125 -1.421875  Q 17.71875 -1.421875 12.765625 4.390625  Q 7.8125 10.203125 7.8125 21.296875  z "
             id="DejaVuSans-Bold-117" />
          <path
             d="M 8.40625 75.984375  L 25.875 75.984375  L 25.875 0  L 8.40625 0  z "
             id="DejaVuSans-Bold-108" />
          <path
             d="M 27.484375 70.21875  L 27.484375 54.6875  L 45.515625 54.6875  L 45.515625 42.1875  L 27.484375 42.1875  L 27.484375 19  Q 27.484375 15.1875 29 13.84375  Q 30.515625 12.5 35.015625 12.5  L 44 12.5  L 44 0  L 29 0  Q 18.65625 0 14.328125 4.3125  Q 10.015625 8.640625 10.015625 19  L 10.015625 42.1875  L 1.3125 42.1875  L 1.3125 54.6875  L 10.015625 54.6875  L 10.015625 70.21875  z "
             id="DejaVuSans-Bold-116" />
          <path
             d="M 8.40625 54.6875  L 25.875 54.6875  L 25.875 0  L 8.40625 0  z M 8.40625 75.984375  L 25.875 75.984375  L 25.875 61.71875  L 8.40625 61.71875  z "
             id="DejaVuSans-Bold-105" />
          <path
             d="M 5.421875 35.890625  L 36.078125 35.890625  L 36.078125 21.6875  L 5.421875 21.6875  z "
             id="DejaVuSans-Bold-45" />
          <path
             d="M 0.484375 72.90625  L 67.671875 72.90625  L 67.671875 58.6875  L 43.5 58.6875  L 43.5 0  L 24.703125 0  L 24.703125 58.6875  L 0.484375 58.6875  z "
             id="DejaVuSans-Bold-84" />
          <path
             d="M 49.03125 39.796875  Q 46.734375 40.875 44.453125 41.375  Q 42.1875 41.890625 39.890625 41.890625  Q 33.15625 41.890625 29.515625 37.5625  Q 25.875 33.25 25.875 25.203125  L 25.875 0  L 8.40625 0  L 8.40625 54.6875  L 25.875 54.6875  L 25.875 45.703125  Q 29.25 51.078125 33.609375 53.53125  Q 37.984375 56 44.09375 56  Q 44.96875 56 45.984375 55.921875  Q 47.015625 55.859375 48.96875 55.609375  z "
             id="DejaVuSans-Bold-114" />
          <path
             d="M 62.984375 27.484375  L 62.984375 22.515625  L 22.125 22.515625  Q 22.75 16.359375 26.5625 13.28125  Q 30.375 10.203125 37.203125 10.203125  Q 42.71875 10.203125 48.5 11.84375  Q 54.296875 13.484375 60.40625 16.796875  L 60.40625 3.328125  Q 54.203125 0.984375 48 -0.21875  Q 41.796875 -1.421875 35.59375 -1.421875  Q 20.75 -1.421875 12.515625 6.125  Q 4.296875 13.671875 4.296875 27.296875  Q 4.296875 40.671875 12.375 48.328125  Q 20.453125 56 34.625 56  Q 47.515625 56 55.25 48.234375  Q 62.984375 40.484375 62.984375 27.484375  z M 45.015625 33.296875  Q 45.015625 38.28125 42.109375 41.328125  Q 39.203125 44.390625 34.515625 44.390625  Q 29.4375 44.390625 26.265625 41.53125  Q 23.09375 38.671875 22.3125 33.296875  z "
             id="DejaVuSans-Bold-101" />
          <path
             id="DejaVuSans-Bold-32" />
          <path
             d="M 49.8125 37.203125  L 75.09375 0  L 55.515625 0  L 38.484375 24.90625  L 21.578125 0  L 1.90625 0  L 27.203125 37.203125  L 2.875 72.90625  L 22.515625 72.90625  L 38.484375 49.421875  L 54.390625 72.90625  L 74.125 72.90625  z "
             id="DejaVuSans-Bold-88" />
          <path
             d="M 74.703125 5.421875  Q 67.671875 2 60.109375 0.28125  Q 52.546875 -1.421875 44.484375 -1.421875  Q 26.265625 -1.421875 15.625 8.765625  Q 4.984375 18.953125 4.984375 36.375  Q 4.984375 54 15.8125 64.109375  Q 26.65625 74.21875 45.515625 74.21875  Q 52.78125 74.21875 59.4375 72.84375  Q 66.109375 71.484375 72.015625 68.796875  L 72.015625 53.71875  Q 65.921875 57.171875 59.890625 58.875  Q 53.859375 60.59375 47.796875 60.59375  Q 36.578125 60.59375 30.5 54.3125  Q 24.421875 48.046875 24.421875 36.375  Q 24.421875 24.8125 30.28125 18.5  Q 36.140625 12.203125 46.921875 12.203125  Q 49.859375 12.203125 52.375 12.5625  Q 54.890625 12.9375 56.890625 13.71875  L 56.890625 27.875  L 45.40625 27.875  L 45.40625 40.484375  L 74.703125 40.484375  z "
             id="DejaVuSans-Bold-71" />
          <path
             d="M 38.375 44.671875  Q 42.828125 44.671875 45.109375 46.625  Q 47.40625 48.578125 47.40625 52.390625  Q 47.40625 56.15625 45.109375 58.125  Q 42.828125 60.109375 38.375 60.109375  L 27.984375 60.109375  L 27.984375 44.671875  z M 39.015625 12.796875  Q 44.671875 12.796875 47.53125 15.1875  Q 50.390625 17.578125 50.390625 22.40625  Q 50.390625 27.15625 47.5625 29.515625  Q 44.734375 31.890625 39.015625 31.890625  L 27.984375 31.890625  L 27.984375 12.796875  z M 56.5 39.015625  Q 62.546875 37.25 65.859375 32.515625  Q 69.1875 27.78125 69.1875 20.90625  Q 69.1875 10.359375 62.0625 5.171875  Q 54.9375 0 40.375 0  L 9.1875 0  L 9.1875 72.90625  L 37.40625 72.90625  Q 52.59375 72.90625 59.40625 68.3125  Q 66.21875 63.71875 66.21875 53.609375  Q 66.21875 48.296875 63.71875 44.5625  Q 61.234375 40.828125 56.5 39.015625  z "
             id="DejaVuSans-Bold-66" />
          <path
             d="M 34.421875 43.5  Q 28.609375 43.5 25.5625 39.328125  Q 22.515625 35.15625 22.515625 27.296875  Q 22.515625 19.4375 25.5625 15.25  Q 28.609375 11.078125 34.421875 11.078125  Q 40.140625 11.078125 43.15625 15.25  Q 46.1875 19.4375 46.1875 27.296875  Q 46.1875 35.15625 43.15625 39.328125  Q 40.140625 43.5 34.421875 43.5  z M 34.421875 56  Q 48.53125 56 56.46875 48.375  Q 64.40625 40.765625 64.40625 27.296875  Q 64.40625 13.8125 56.46875 6.1875  Q 48.53125 -1.421875 34.421875 -1.421875  Q 20.265625 -1.421875 12.28125 6.1875  Q 4.296875 13.8125 4.296875 27.296875  Q 4.296875 40.765625 12.28125 48.375  Q 20.265625 56 34.421875 56  z "
             id="DejaVuSans-Bold-111" />
          <path
             d="M 51.125 52.984375  L 51.125 39.703125  Q 45.515625 42.046875 40.28125 43.21875  Q 35.0625 44.390625 30.421875 44.390625  Q 25.4375 44.390625 23.015625 43.140625  Q 20.609375 41.890625 20.609375 39.3125  Q 20.609375 37.203125 22.4375 36.078125  Q 24.265625 34.96875 29 34.421875  L 32.078125 33.984375  Q 45.515625 32.28125 50.140625 28.375  Q 54.78125 24.46875 54.78125 16.109375  Q 54.78125 7.375 48.328125 2.96875  Q 41.890625 -1.421875 29.109375 -1.421875  Q 23.6875 -1.421875 17.890625 -0.5625  Q 12.109375 0.296875 6 2  L 6 15.28125  Q 11.234375 12.75 16.71875 11.46875  Q 22.21875 10.203125 27.875 10.203125  Q 33.015625 10.203125 35.59375 11.609375  Q 38.1875 13.03125 38.1875 15.828125  Q 38.1875 18.171875 36.40625 19.3125  Q 34.625 20.453125 29.296875 21.09375  L 26.21875 21.484375  Q 14.546875 22.953125 9.859375 26.90625  Q 5.171875 30.859375 5.171875 38.921875  Q 5.171875 47.609375 11.125 51.796875  Q 17.09375 56 29.390625 56  Q 34.234375 56 39.546875 55.265625  Q 44.875 54.546875 51.125 52.984375  z "
             id="DejaVuSans-Bold-115" />
          <path
             d="M 45.609375 46.6875  L 45.609375 75.984375  L 63.1875 75.984375  L 63.1875 0  L 45.609375 0  L 45.609375 7.90625  Q 42 3.078125 37.640625 0.828125  Q 33.296875 -1.421875 27.59375 -1.421875  Q 17.484375 -1.421875 10.984375 6.609375  Q 4.5 14.65625 4.5 27.296875  Q 4.5 39.9375 10.984375 47.96875  Q 17.484375 56 27.59375 56  Q 33.25 56 37.625 53.734375  Q 42 51.46875 45.609375 46.6875  z M 34.078125 11.28125  Q 39.703125 11.28125 42.65625 15.375  Q 45.609375 19.484375 45.609375 27.296875  Q 45.609375 35.109375 42.65625 39.203125  Q 39.703125 43.3125 34.078125 43.3125  Q 28.515625 43.3125 25.5625 39.203125  Q 22.609375 35.109375 22.609375 27.296875  Q 22.609375 19.484375 25.5625 15.375  Q 28.515625 11.28125 34.078125 11.28125  z "
             id="DejaVuSans-Bold-100" />
          <path
             d="M 9.1875 72.90625  L 40.375 72.90625  Q 54.296875 72.90625 61.734375 66.71875  Q 69.1875 60.546875 69.1875 49.125  Q 69.1875 37.640625 61.734375 31.46875  Q 54.296875 25.296875 40.375 25.296875  L 27.984375 25.296875  L 27.984375 0  L 9.1875 0  z M 27.984375 59.28125  L 27.984375 38.921875  L 38.375 38.921875  Q 43.84375 38.921875 46.828125 41.578125  Q 49.8125 44.234375 49.8125 49.125  Q 49.8125 54 46.828125 56.640625  Q 43.84375 59.28125 38.375 59.28125  z "
             id="DejaVuSans-Bold-80" />
          <path
             d="M 37.5 11.28125  Q 43.109375 11.28125 46.0625 15.375  Q 49.03125 19.484375 49.03125 27.296875  Q 49.03125 35.109375 46.0625 39.203125  Q 43.109375 43.3125 37.5 43.3125  Q 31.890625 43.3125 28.875 39.1875  Q 25.875 35.0625 25.875 27.296875  Q 25.875 19.53125 28.875 15.40625  Q 31.890625 11.28125 37.5 11.28125  z M 25.875 46.6875  Q 29.5 51.46875 33.890625 53.734375  Q 38.28125 56 44 56  Q 54.109375 56 60.59375 47.96875  Q 67.09375 39.9375 67.09375 27.296875  Q 67.09375 14.65625 60.59375 6.609375  Q 54.109375 -1.421875 44 -1.421875  Q 38.28125 -1.421875 33.890625 0.84375  Q 29.5 3.125 25.875 7.90625  L 25.875 0  L 8.40625 0  L 8.40625 75.984375  L 25.875 75.984375  z "
             id="DejaVuSans-Bold-98" />
          <path
             d="M 32.90625 24.609375  Q 27.4375 24.609375 24.671875 22.75  Q 21.921875 20.90625 21.921875 17.28125  Q 21.921875 13.96875 24.140625 12.078125  Q 26.375 10.203125 30.328125 10.203125  Q 35.25 10.203125 38.625 13.734375  Q 42 17.28125 42 22.609375  L 42 24.609375  z M 59.625 31.203125  L 59.625 0  L 42 0  L 42 8.109375  Q 38.484375 3.125 34.078125 0.84375  Q 29.6875 -1.421875 23.390625 -1.421875  Q 14.890625 -1.421875 9.59375 3.53125  Q 4.296875 8.5 4.296875 16.40625  Q 4.296875 26.03125 10.90625 30.515625  Q 17.53125 35.015625 31.6875 35.015625  L 42 35.015625  L 42 36.375  Q 42 40.53125 38.71875 42.453125  Q 35.453125 44.390625 28.515625 44.390625  Q 22.90625 44.390625 18.0625 43.265625  Q 13.234375 42.140625 9.078125 39.890625  L 9.078125 53.21875  Q 14.703125 54.59375 20.359375 55.296875  Q 26.03125 56 31.6875 56  Q 46.484375 56 53.046875 50.171875  Q 59.625 44.34375 59.625 31.203125  z "
             id="DejaVuSans-Bold-97" />
          <path
             d="M 1.21875 54.6875  L 18.703125 54.6875  L 33.40625 17.578125  L 45.90625 54.6875  L 63.375 54.6875  L 40.375 -5.171875  Q 36.921875 -14.3125 32.296875 -17.9375  Q 27.6875 -21.578125 20.125 -21.578125  L 10.015625 -21.578125  L 10.015625 -10.109375  L 15.484375 -10.109375  Q 19.921875 -10.109375 21.9375 -8.6875  Q 23.96875 -7.28125 25.09375 -3.609375  L 25.59375 -2.09375  z "
             id="DejaVuSans-Bold-121" />
          <path
             d="M 27.984375 58.6875  L 27.984375 14.203125  L 34.71875 14.203125  Q 46.234375 14.203125 52.3125 19.921875  Q 58.40625 25.640625 58.40625 36.53125  Q 58.40625 47.359375 52.34375 53.015625  Q 46.296875 58.6875 34.71875 58.6875  z M 9.1875 72.90625  L 29 72.90625  Q 45.609375 72.90625 53.734375 70.53125  Q 61.859375 68.171875 67.671875 62.5  Q 72.796875 57.5625 75.28125 51.109375  Q 77.78125 44.671875 77.78125 36.53125  Q 77.78125 28.265625 75.28125 21.796875  Q 72.796875 15.328125 67.671875 10.40625  Q 61.8125 4.734375 53.609375 2.359375  Q 45.40625 0 29 0  L 9.1875 0  z "
             id="DejaVuSans-Bold-68" />
          <path
             d="M 63.375 33.296875  L 63.375 0  L 45.796875 0  L 45.796875 5.421875  L 45.796875 25.484375  Q 45.796875 32.5625 45.484375 35.25  Q 45.171875 37.9375 44.390625 39.203125  Q 43.359375 40.921875 41.59375 41.875  Q 39.84375 42.828125 37.59375 42.828125  Q 32.125 42.828125 29 38.59375  Q 25.875 34.375 25.875 26.90625  L 25.875 0  L 8.40625 0  L 8.40625 54.6875  L 25.875 54.6875  L 25.875 46.6875  Q 29.828125 51.46875 34.265625 53.734375  Q 38.71875 56 44.09375 56  Q 53.5625 56 58.46875 50.1875  Q 63.375 44.390625 63.375 33.296875  z "
             id="DejaVuSans-Bold-110" />
        </defs>
        <g
           style="fill:#262626;"
           transform="translate(186.481016 63.12)scale(0.13 -0.13)"
           id="g3333">
          <use
             xlink:href="#DejaVuSans-Bold-77"
             id="use3235" />
          <use
             x="99.511719"
             xlink:href="#DejaVuSans-Bold-117"
             id="use3237" />
          <use
             x="170.703125"
             xlink:href="#DejaVuSans-Bold-108"
             id="use3239" />
          <use
             x="204.980469"
             xlink:href="#DejaVuSans-Bold-116"
             id="use3241" />
          <use
             x="252.783203"
             xlink:href="#DejaVuSans-Bold-105"
             id="use3243" />
          <use
             x="287.060547"
             xlink:href="#DejaVuSans-Bold-45"
             id="use3245" />
          <use
             x="313.814453"
             xlink:href="#DejaVuSans-Bold-84"
             id="use3247" />
          <use
             x="371.027344"
             xlink:href="#DejaVuSans-Bold-114"
             id="use3249" />
          <use
             x="420.34375"
             xlink:href="#DejaVuSans-Bold-101"
             id="use3251" />
          <use
             x="488.166016"
             xlink:href="#DejaVuSans-Bold-101"
             id="use3253" />
          <use
             x="555.988281"
             xlink:href="#DejaVuSans-Bold-32"
             id="use3255" />
          <use
             x="590.802734"
             xlink:href="#DejaVuSans-Bold-88"
             id="use3257" />
          <use
             x="667.902344"
             xlink:href="#DejaVuSans-Bold-71"
             id="use3259" />
          <use
             x="749.982422"
             xlink:href="#DejaVuSans-Bold-66"
             id="use3261" />
          <use
             x="826.203125"
             xlink:href="#DejaVuSans-Bold-111"
             id="use3263" />
          <use
             x="894.904297"
             xlink:href="#DejaVuSans-Bold-111"
             id="use3265" />
          <use
             x="963.605469"
             xlink:href="#DejaVuSans-Bold-115"
             id="use3267" />
          <use
             x="1023.126953"
             xlink:href="#DejaVuSans-Bold-116"
             id="use3269" />
          <use
             x="1070.929688"
             xlink:href="#DejaVuSans-Bold-32"
             id="use3271" />
          <use
             x="1105.744141"
             xlink:href="#DejaVuSans-Bold-77"
             id="use3273" />
          <use
             x="1205.255859"
             xlink:href="#DejaVuSans-Bold-111"
             id="use3275" />
          <use
             x="1273.957031"
             xlink:href="#DejaVuSans-Bold-100"
             id="use3277" />
          <use
             x="1345.539062"
             xlink:href="#DejaVuSans-Bold-101"
             id="use3279" />
          <use
             x="1413.361328"
             xlink:href="#DejaVuSans-Bold-108"
             id="use3281" />
          <use
             x="1447.638672"
             xlink:href="#DejaVuSans-Bold-32"
             id="use3283" />
          <use
             x="1482.453125"
             xlink:href="#DejaVuSans-Bold-80"
             id="use3285" />
          <use
             x="1555.744141"
             xlink:href="#DejaVuSans-Bold-114"
             id="use3287" />
          <use
             x="1605.060547"
             xlink:href="#DejaVuSans-Bold-111"
             id="use3289" />
          <use
             x="1673.761719"
             xlink:href="#DejaVuSans-Bold-98"
             id="use3291" />
          <use
             x="1745.34375"
             xlink:href="#DejaVuSans-Bold-97"
             id="use3293" />
          <use
             x="1812.824219"
             xlink:href="#DejaVuSans-Bold-98"
             id="use3295" />
          <use
             x="1884.40625"
             xlink:href="#DejaVuSans-Bold-105"
             id="use3297" />
          <use
             x="1918.683594"
             xlink:href="#DejaVuSans-Bold-108"
             id="use3299" />
          <use
             x="1952.960938"
             xlink:href="#DejaVuSans-Bold-105"
             id="use3301" />
          <use
             x="1987.238281"
             xlink:href="#DejaVuSans-Bold-116"
             id="use3303" />
          <use
             x="2035.041016"
             xlink:href="#DejaVuSans-Bold-121"
             id="use3305" />
          <use
             x="2100.226562"
             xlink:href="#DejaVuSans-Bold-32"
             id="use3307" />
          <use
             x="2135.041016"
             xlink:href="#DejaVuSans-Bold-68"
             id="use3309" />
          <use
             x="2218.048828"
             xlink:href="#DejaVuSans-Bold-105"
             id="use3311" />
          <use
             x="2252.326172"
             xlink:href="#DejaVuSans-Bold-115"
             id="use3313" />
          <use
             x="2311.847656"
             xlink:href="#DejaVuSans-Bold-116"
             id="use3315" />
          <use
             x="2359.650391"
             xlink:href="#DejaVuSans-Bold-114"
             id="use3317" />
          <use
             x="2408.966797"
             xlink:href="#DejaVuSans-Bold-105"
             id="use3319" />
          <use
             x="2443.244141"
             xlink:href="#DejaVuSans-Bold-98"
             id="use3321" />
          <use
             x="2514.826172"
             xlink:href="#DejaVuSans-Bold-117"
             id="use3323" />
          <use
             x="2586.017578"
             xlink:href="#DejaVuSans-Bold-116"
             id="use3325" />
          <use
             x="2633.820312"
             xlink:href="#DejaVuSans-Bold-105"
             id="use3327" />
          <use
             x="2668.097656"
             xlink:href="#DejaVuSans-Bold-111"
             id="use3329" />
          <use
             x="2736.798828"
             xlink:href="#DejaVuSans-Bold-110"
             id="use3331" />
        </g>
      </g>
      <g
         id="legend_1">
        <g
           id="patch_107">
          <path
             d="M 533.960938 106.47625  L 641 106.47625  Q 643 106.47625 643 104.47625  L 643 76.12  Q 643 74.12 641 74.12  L 533.960938 74.12  Q 531.960938 74.12 531.960938 76.12  L 531.960938 104.47625  Q 531.960938 106.47625 533.960938 106.47625  z "
             style="fill:#eaeaf2;opacity:0.8;stroke:#cccccc;stroke-linejoin:miter;"
             id="path3336" />
        </g>
        <g
           id="patch_108">
          <path
             d="M 535.960938 85.718437  L 555.960938 85.718437  L 555.960938 78.718437  L 535.960938 78.718437  z "
             style="fill:#0000ff;stroke:#ffffff;stroke-linejoin:miter;"
             id="path3339" />
        </g>
        <g
           id="text_15">
          <!-- Negative Label -->
          <defs
             id="defs3344">
            <path
               d="M 9.8125 72.90625  L 23.09375 72.90625  L 55.421875 11.921875  L 55.421875 72.90625  L 64.984375 72.90625  L 64.984375 0  L 51.703125 0  L 19.390625 60.984375  L 19.390625 0  L 9.8125 0  z "
               id="DejaVuSans-78" />
            <path
               d="M 45.40625 27.984375  Q 45.40625 37.75 41.375 43.109375  Q 37.359375 48.484375 30.078125 48.484375  Q 22.859375 48.484375 18.828125 43.109375  Q 14.796875 37.75 14.796875 27.984375  Q 14.796875 18.265625 18.828125 12.890625  Q 22.859375 7.515625 30.078125 7.515625  Q 37.359375 7.515625 41.375 12.890625  Q 45.40625 18.265625 45.40625 27.984375  z M 54.390625 6.78125  Q 54.390625 -7.171875 48.1875 -13.984375  Q 42 -20.796875 29.203125 -20.796875  Q 24.46875 -20.796875 20.265625 -20.09375  Q 16.0625 -19.390625 12.109375 -17.921875  L 12.109375 -9.1875  Q 16.0625 -11.328125 19.921875 -12.34375  Q 23.78125 -13.375 27.78125 -13.375  Q 36.625 -13.375 41.015625 -8.765625  Q 45.40625 -4.15625 45.40625 5.171875  L 45.40625 9.625  Q 42.625 4.78125 38.28125 2.390625  Q 33.9375 0 27.875 0  Q 17.828125 0 11.671875 7.65625  Q 5.515625 15.328125 5.515625 27.984375  Q 5.515625 40.671875 11.671875 48.328125  Q 17.828125 56 27.875 56  Q 33.9375 56 38.28125 53.609375  Q 42.625 51.21875 45.40625 46.390625  L 45.40625 54.6875  L 54.390625 54.6875  z "
               id="DejaVuSans-103" />
          </defs>
          <g
             style="fill:#262626;"
             transform="translate(563.960938 85.718437)scale(0.1 -0.1)"
             id="g3374">
            <use
               xlink:href="#DejaVuSans-78"
               id="use3346" />
            <use
               x="74.804688"
               xlink:href="#DejaVuSans-101"
               id="use3348" />
            <use
               x="136.328125"
               xlink:href="#DejaVuSans-103"
               id="use3350" />
            <use
               x="199.804688"
               xlink:href="#DejaVuSans-97"
               id="use3352" />
            <use
               x="261.083984"
               xlink:href="#DejaVuSans-116"
               id="use3354" />
            <use
               x="300.292969"
               xlink:href="#DejaVuSans-105"
               id="use3356" />
            <use
               x="328.076172"
               xlink:href="#DejaVuSans-118"
               id="use3358" />
            <use
               x="387.255859"
               xlink:href="#DejaVuSans-101"
               id="use3360" />
            <use
               x="448.779297"
               xlink:href="#DejaVuSans-32"
               id="use3362" />
            <use
               x="480.566406"
               xlink:href="#DejaVuSans-76"
               id="use3364" />
            <use
               x="536.279297"
               xlink:href="#DejaVuSans-97"
               id="use3366" />
            <use
               x="597.558594"
               xlink:href="#DejaVuSans-98"
               id="use3368" />
            <use
               x="661.035156"
               xlink:href="#DejaVuSans-101"
               id="use3370" />
            <use
               x="722.558594"
               xlink:href="#DejaVuSans-108"
               id="use3372" />
          </g>
        </g>
        <g
           id="patch_109">
          <path
             d="M 535.960938 100.396563  L 555.960938 100.396563  L 555.960938 93.396563  L 535.960938 93.396563  z "
             style="fill:#ff0000;opacity:0.7;stroke:#ffffff;stroke-linejoin:miter;"
             id="path3377" />
        </g>
        <g
           id="text_16">
          <!-- Positive Label -->
          <g
             style="fill:#262626;"
             transform="translate(563.960938 100.396563)scale(0.1 -0.1)"
             id="g3408">
            <use
               xlink:href="#DejaVuSans-80"
               id="use3380" />
            <use
               x="56.677734"
               xlink:href="#DejaVuSans-111"
               id="use3382" />
            <use
               x="117.859375"
               xlink:href="#DejaVuSans-115"
               id="use3384" />
            <use
               x="169.958984"
               xlink:href="#DejaVuSans-105"
               id="use3386" />
            <use
               x="197.742188"
               xlink:href="#DejaVuSans-116"
               id="use3388" />
            <use
               x="236.951172"
               xlink:href="#DejaVuSans-105"
               id="use3390" />
            <use
               x="264.734375"
               xlink:href="#DejaVuSans-118"
               id="use3392" />
            <use
               x="323.914062"
               xlink:href="#DejaVuSans-101"
               id="use3394" />
            <use
               x="385.4375"
               xlink:href="#DejaVuSans-32"
               id="use3396" />
            <use
               x="417.224609"
               xlink:href="#DejaVuSans-76"
               id="use3398" />
            <use
               x="472.9375"
               xlink:href="#DejaVuSans-97"
               id="use3400" />
            <use
               x="534.216797"
               xlink:href="#DejaVuSans-98"
               id="use3402" />
            <use
               x="597.693359"
               xlink:href="#DejaVuSans-101"
               id="use3404" />
            <use
               x="659.216797"
               xlink:href="#DejaVuSans-108"
               id="use3406" />
          </g>
        </g>
      </g>
    </g>
  </g>
  <defs
     id="defs3417">
    <clipPath
       id="p1510ce0f4d">
      <rect
         height="434.88"
         width="558"
         x="90"
         y="69.12"
         id="rect3414" />
    </clipPath>
  </defs>
</svg>
